<svg width="110" height="101" viewBox="0 0 110 101" fill="none" xmlns="http://www.w3.org/2000/svg">
    <g clip-path="url(#clip0_495_2704)">
        <path
            d="M103.664 81.9215C101.113 81.7781 98.6649 81.7167 96.2168 81.4709C89.4897 80.8154 82.9477 79.2177 76.3646 77.8248C72.5587 77.026 69.5346 76.2476 63.6509 77.4766C65.379 76.6573 69.8843 76.35 73.0318 76.8621C76.2 77.3537 79.3681 77.8863 82.6185 78.3984C82.6391 78.1526 82.6802 77.9068 82.6802 77.6405C82.6802 63.5069 82.6802 49.3734 82.6802 35.2193C82.6802 34.6458 82.6391 34.0518 82.4951 33.4987C82.1248 32.0239 81.4665 31.5733 79.9236 31.5733C73.1347 31.5733 66.3459 31.5733 59.557 31.5733C59.2896 31.5733 59.0221 31.5528 58.6518 31.5323C59.3307 28.849 59.989 26.2476 60.6268 23.6462C60.8531 22.745 61.0999 21.8642 61.2851 20.9629C61.4702 20.0821 61.0999 19.5291 60.1742 19.5291C57.1912 19.4881 54.2082 19.4881 51.2252 19.5291C50.2172 19.5291 49.9292 20.0821 50.1966 21.1677C50.9784 24.3017 51.7601 27.4561 52.5213 30.5901C52.583 30.8769 52.6241 31.1841 52.6859 31.5528C52.0275 31.5528 51.4515 31.5528 50.8755 31.5528C44.4981 31.5528 38.1207 31.6143 31.7433 31.5118C29.3569 31.4709 28.9866 32.7204 28.7192 34.2976C28.678 34.5229 28.7192 34.7687 28.7192 35.0145C28.7192 49.1276 28.7192 63.2202 28.7192 77.3332C28.7192 77.5585 28.7192 77.8044 28.7192 78.1321C31.7639 77.6814 34.7057 77.2103 37.6681 76.8212C40.6511 76.432 43.6546 76.3295 46.5759 77.2308C45.3621 77.1079 44.1484 76.8826 42.914 76.8621C37.9767 76.7597 33.2039 77.8658 28.4311 78.9924C21.992 80.5082 15.5117 81.6757 8.8669 81.7781C8.24973 81.7781 7.65314 81.7781 6.93311 81.7781C7.3857 78.7261 7.83829 75.8175 8.2703 72.8883C9.01091 67.9723 9.73094 63.0563 10.4715 58.1403C11.2739 52.7941 12.0967 47.4479 12.9402 42.1018C13.1665 40.627 14.2568 39.7052 15.7998 39.6438C17.3427 39.5823 18.8856 39.6028 20.4285 39.6438C21.128 39.6438 21.3954 39.4594 21.3748 38.722C21.3337 36.7351 21.3748 34.7687 21.3543 32.7818C21.3543 32.0444 21.4366 31.4504 22.3829 31.3275C22.6709 31.2865 23.0206 30.7744 23.1029 30.4057C24.543 24.1993 27.5671 18.8531 32.0107 14.3058C37.6475 8.52947 44.4775 5.00632 52.5624 4.49423C65.8521 3.63393 76.0148 9.2259 83.2357 20.246C85.3135 23.4209 86.733 26.8826 87.5559 30.5696C87.6176 30.8564 87.9468 31.307 88.1936 31.3275C89.2428 31.4094 89.2634 32.1264 89.2634 32.8638C89.2634 34.7073 89.3045 36.5508 89.2222 38.3943C89.1811 39.3775 89.4897 39.7052 90.4977 39.6438C91.8555 39.5618 93.2338 39.6028 94.6122 39.6438C96.4225 39.6847 97.5129 40.7294 97.7803 42.5114C98.9324 50.1518 100.084 57.7921 101.257 65.4324C102.018 70.4918 102.779 75.5307 103.52 80.5901C103.582 80.9588 103.561 81.3275 103.602 81.901L103.664 81.9215Z"
            fill="#016B80"/>
        <path
            d="M92.6986 35.9977C94.2827 35.9977 95.7022 35.9977 97.1422 35.9977C99.3846 35.9977 101.092 37.6774 101.38 39.9101C101.874 43.4537 102.47 46.9768 103.026 50.5C103.89 55.8871 104.713 61.2538 105.639 66.6204C106.503 71.6593 107.49 76.6573 108.436 81.6757C108.745 83.3144 109.054 84.9531 109.403 86.8171C107.943 85.4652 106.605 84.2566 105.309 83.0072C105.124 82.8228 105.063 82.4541 105.001 82.1673C104.343 77.7839 103.705 73.4004 103.046 69.0375C102.347 64.4287 101.648 59.7995 100.948 55.1907C100.31 50.9097 99.5492 46.6491 99.0555 42.3476C98.788 40.1354 97.0805 38.4762 94.5913 38.3943C93.2952 38.3533 91.9992 38.3943 90.5797 38.3943C90.5591 37.9641 90.518 37.6159 90.518 37.2472C90.518 35.67 90.6003 34.0928 90.4768 32.536C90.4151 31.8191 90.0859 30.8769 89.5716 30.5287C88.9133 30.0985 88.6665 29.6684 88.4607 28.9924C85.2309 18.1362 78.5449 10.2091 68.0736 5.66181C63.342 3.61347 58.3635 2.99897 53.2204 3.28574C45.2178 3.71589 38.3672 6.7884 32.5247 12.1551C27.3816 16.8662 23.9049 22.6016 22.1357 29.3611C22.0534 29.7093 21.786 30.16 21.498 30.2829C20.5722 30.6311 20.2636 31.348 20.2225 32.1878C20.1608 33.8265 20.1813 35.4652 20.1608 37.1038C20.1608 37.5135 20.1196 37.9027 20.099 38.3943C18.9676 38.3943 17.8978 38.4148 16.8486 38.3943C14.0302 38.2919 11.8907 39.6643 11.541 43.044C11.0884 47.6118 10.2038 52.1387 9.52489 56.686C8.78429 61.602 8.04369 66.518 7.30309 71.434C6.74764 75.1006 6.21276 78.7671 5.63673 82.4336C5.59559 82.6589 5.49273 82.9047 5.34872 83.0481C3.88809 84.2976 2.38631 85.5471 0.802246 86.8785C2.01601 80.2009 3.22978 73.6872 4.4024 67.153C5.67788 60.1682 6.95336 53.1628 8.22884 46.1575C8.61971 43.9453 9.01059 41.7331 9.42203 39.5414C9.83348 37.3906 11.4998 36.0387 13.7011 35.9977C14.8737 35.9977 16.0257 35.9773 17.1984 35.9977C17.8567 36.0182 18.1241 35.8134 18.083 35.1374C18.0418 33.806 18.083 32.4746 18.0418 31.1432C18.0212 30.119 18.3915 29.4021 19.3584 28.931C19.667 28.7671 19.9345 28.296 20.0168 27.9068C21.6831 21.4955 24.8307 15.9035 29.5417 11.2333C34.9934 5.84616 41.5148 2.4664 49.1265 1.25788C58.8572 -0.278376 67.8885 1.50368 76.0145 7.05468C83.1737 11.9297 87.9464 18.5868 90.3122 26.9031C90.5797 27.8658 90.7443 28.8081 91.8346 29.3611C92.2666 29.5864 92.5546 30.4263 92.5752 30.9998C92.6781 32.5975 92.6163 34.1952 92.6163 35.9773L92.6986 35.9977Z"
            fill="#016B80"/>
        <path
            d="M55.1751 88.2714C55.278 88.21 55.3603 88.169 55.3808 88.128C56.0392 85.6086 58.2815 84.7073 60.2359 83.6012C63.1777 81.9011 66.3664 80.9588 69.7814 80.7335C72.1678 80.5696 74.4719 81.0203 76.776 81.6348C84.1615 83.6217 91.7115 84.7278 99.3027 85.3832C101.442 85.5676 103.602 85.5266 105.742 85.6086C105.968 85.6086 106.256 85.6495 106.4 85.7724C107.449 86.6327 108.478 87.5135 109.671 88.5377H0.699707C1.87233 87.534 2.92151 86.6327 3.99127 85.7519C4.13528 85.629 4.36157 85.5881 4.5673 85.6086C12.3848 85.8339 20.0377 84.4 27.67 83.0481C30.4472 82.5565 33.1833 81.6757 35.94 81.1022C40.4659 80.1395 44.7861 81.0203 48.9006 82.9662C49.9703 83.4783 50.9989 84.1133 52.0276 84.7278C53.303 85.4857 54.4962 86.3255 54.8665 87.9027C54.9077 88.0461 55.0723 88.1485 55.1545 88.2919L55.1751 88.2714Z"
            fill="#016B80"/>
        <path
            d="M0.678949 89.951H109.671C109.63 90.3607 109.589 90.7499 109.527 91.2415C108.539 91.2415 107.573 91.2415 106.626 91.2415C90.2095 91.2415 73.7723 91.2415 57.3556 91.2415C40.7538 91.2415 24.1725 91.2415 7.57066 91.2415C5.6163 91.2415 3.66193 91.1801 1.70756 91.2415C0.720094 91.2825 0.514371 90.8523 0.678949 89.951Z"
            fill="#016B80"/>
        <path
            d="M49.3325 41.5078C49.0856 41.5078 48.8593 41.4873 48.633 41.4463C48.4067 41.4054 48.2833 41.3029 48.2833 41.0981C48.2833 40.8933 48.3862 40.7089 48.6125 40.586C48.7976 40.4836 48.9828 40.3812 49.1679 40.2788C49.2914 40.1968 49.4354 40.0535 49.5794 39.8691C49.7439 39.6643 49.8674 39.5823 49.9908 39.5823C50.1554 39.5823 50.32 39.6848 50.4845 39.8896C50.6491 40.0944 50.7726 40.2378 50.8754 40.2993C51.1223 40.4222 51.328 40.5451 51.4926 40.6475C51.6572 40.7499 51.7395 40.9138 51.7395 41.1186C51.7395 41.3234 51.5749 41.4463 51.2663 41.5078C51.0606 41.5283 50.8548 41.5692 50.6491 41.5897C50.7314 41.6512 50.7931 41.6921 50.8754 41.7126C50.9371 41.7331 50.9989 41.7536 51.0606 41.7536C51.1634 41.7536 51.2457 41.7536 51.3074 41.7536H52.1715V42.6753H50.4845C50.4434 42.6753 50.3611 42.5934 50.2377 42.4295C50.0937 42.2657 50.0114 42.1837 49.9702 42.1837C49.9291 42.1837 49.8468 42.2452 49.7439 42.3476C49.6411 42.45 49.5382 42.5524 49.4559 42.6753H48.7153C48.2627 42.7777 47.8924 42.9826 47.6044 43.2898C47.3164 43.5971 47.1724 43.9453 47.1724 44.3959V44.6417C47.1724 44.7237 47.2341 44.8875 47.2753 45.1743C47.337 45.4611 47.625 45.6864 48.1805 45.8912C48.7359 46.0961 49.1885 46.2394 49.5382 46.3623C49.4559 46.3623 49.3531 46.4033 49.2708 46.4238C49.1679 46.4238 49.1062 46.4443 49.0856 46.4238C48.3656 46.2804 47.7896 46.0551 47.3576 45.7478C46.905 45.4406 46.6581 45.1129 46.617 44.7646C46.5552 44.4164 46.5347 44.1911 46.5347 44.0682C46.5347 43.4742 46.7404 42.9621 47.1518 42.5115C47.5633 42.0608 48.0776 41.815 48.6742 41.7536C48.8182 41.7536 48.9211 41.7536 48.9828 41.7126C49.0651 41.6921 49.1885 41.6307 49.3736 41.5487L49.3325 41.5078ZM49.2708 40.8318C49.3119 40.8728 49.4148 40.9342 49.5999 40.9957C49.7851 41.0571 49.9085 41.0776 49.9908 41.0776C50.0731 41.0776 50.2171 41.0776 50.3405 41.0162C50.4845 40.9752 50.5668 40.9342 50.6491 40.8523C50.608 40.7909 50.5463 40.7294 50.5051 40.6884C50.2377 40.5041 50.0525 40.4222 49.9702 40.4222C49.8879 40.4222 49.7028 40.4836 49.5176 40.6065C49.3325 40.7294 49.2502 40.7909 49.2708 40.8318Z"
            fill="#016B80"/>
        <path
            d="M54.8663 36.8785C54.1668 37.1243 53.4262 37.5955 52.6033 38.2714L52.3564 37.9232C53.1382 37.2677 53.9199 36.7966 54.7017 36.4689L54.8663 36.8581V36.8785Z"
            fill="#016B80"/>
        <path
            d="M51.7603 41.7126H52.5626C52.6449 41.4463 52.7683 41.2005 52.9329 40.9752C53.0974 40.7704 53.3032 40.6475 53.6118 40.6475C53.9203 40.6475 54.3112 40.8318 54.5169 41.18C54.7021 41.5282 54.8255 41.7126 54.8872 41.7126H55.5044V42.6344H54.8872C54.8049 42.6344 54.6815 42.7777 54.5169 43.044C54.3524 43.3103 54.1055 43.4537 53.7763 43.4537C53.4472 43.4537 53.1386 43.3103 52.974 43.044C52.7889 42.7777 52.686 42.6344 52.6449 42.6344C52.6243 42.6344 52.5626 42.6344 52.4803 42.6344H52.0071C51.9248 42.6344 51.8631 42.6344 51.7808 42.6344V41.7126H51.7603ZM53.3649 42.1428C53.406 42.409 53.5295 42.5524 53.694 42.5524C53.8586 42.5524 53.8792 42.5115 53.8998 42.409C53.9203 42.3066 53.9409 42.1837 53.9409 42.0403C53.9409 41.8969 53.8998 41.7945 53.8381 41.6921C53.7763 41.5897 53.694 41.5487 53.5912 41.5487C53.4883 41.5487 53.4472 41.5897 53.3855 41.6716C53.3443 41.7536 53.3032 41.856 53.3032 41.9789C53.3032 42.1018 53.3032 42.0608 53.3032 42.1223L53.3649 42.1428Z"
            fill="#016B80"/>
        <path
            d="M58.6724 36.5508C58.6724 36.7966 58.5901 37.0014 58.4255 37.1653C58.261 37.3292 58.0552 37.4111 57.8084 37.4111C57.5615 37.4111 57.3558 37.3292 57.1912 37.1653C57.0266 37.0014 56.9443 36.7966 56.9443 36.5508C56.9443 36.305 57.0266 36.1002 57.1912 35.9363C57.3558 35.7724 57.5615 35.6905 57.8084 35.6905C58.0552 35.6905 58.261 35.7724 58.4255 35.9363C58.5901 36.1002 58.6724 36.305 58.6724 36.5508ZM58.2404 36.5508C58.2404 36.4279 58.1992 36.3255 58.117 36.2435C58.0347 36.1616 57.9318 36.1206 57.8084 36.1206C57.6849 36.1206 57.5821 36.1616 57.4998 36.2435C57.4175 36.3255 57.3764 36.4279 57.3764 36.5508C57.3764 36.6737 57.4175 36.7761 57.4998 36.858C57.5821 36.94 57.6849 36.9809 57.8084 36.9809C57.9318 36.9809 58.0347 36.94 58.117 36.858C58.1992 36.7761 58.2404 36.6737 58.2404 36.5508Z"
            fill="#016B80"/>
        <path
            d="M55.1958 41.7126H55.5661C55.957 41.7126 56.3273 41.7126 56.677 41.6921C57.0267 41.6717 57.3765 41.6512 57.7056 41.6102C57.7056 41.2825 57.5616 41.0572 57.2942 40.9138C57.0885 40.8318 56.8622 40.7294 56.6564 40.6475C56.5947 40.7089 56.5124 40.7704 56.4096 40.8523C56.3273 40.9343 56.2038 40.9752 56.101 40.9752C55.8541 40.9752 55.7101 40.9138 55.6484 40.7704C55.5867 40.627 55.5455 40.4631 55.5455 40.2993C55.5455 40.033 55.6484 39.8281 55.8335 39.7257C56.0187 39.6028 56.2656 39.5414 56.5536 39.5414C57.0885 39.5414 57.541 39.7872 57.9113 40.2993C58.2816 40.8114 58.5697 41.1391 58.7548 41.2825C58.94 41.4463 59.2074 41.5488 59.516 41.5897C59.8246 41.6307 60.1332 41.6921 60.4006 41.7126V42.6344H60.092C60.0509 42.6344 59.8451 42.6344 59.4954 42.5934C59.1457 42.5524 58.8165 42.5524 58.5079 42.5524C57.6028 42.5524 56.965 42.5524 56.5947 42.5934C56.2244 42.6139 55.8747 42.6344 55.5661 42.6344H55.2164V41.7331L55.1958 41.7126ZM57.3765 43.8019C57.3765 43.6995 57.4176 43.5971 57.5205 43.4947C57.6233 43.3923 57.7468 43.3513 57.9113 43.3513C58.0759 43.3513 58.2199 43.3923 58.2816 43.4742C58.3434 43.5561 58.3845 43.679 58.3845 43.8019C58.3845 43.9248 58.3228 44.1297 58.1994 44.2116C58.0759 44.2935 57.9319 44.3345 57.7673 44.3345C57.685 44.2935 57.5822 44.2526 57.4999 44.1911C57.4176 44.1297 57.3765 43.9863 57.3765 43.8019Z"
            fill="#016B80"/>
        <path
            d="M63.2393 36.899C62.5398 37.1448 61.7992 37.6159 60.9764 38.2919L60.7295 37.9436C61.5112 37.2882 62.293 36.8171 63.0747 36.4893L63.2393 36.8785V36.899Z"
            fill="#016B80"/>
        <path
            d="M60.1328 41.7126H61.1409C61.1409 41.4258 61.2026 41.18 61.3054 40.9752C61.4083 40.7908 61.6552 40.6884 62.0255 40.6884C62.3958 40.6884 62.5398 40.8318 62.7866 41.139C63.0335 41.4463 63.1775 41.856 63.1775 42.3885C63.1775 42.9211 63.0952 42.9621 62.9512 43.1055C62.8072 43.2488 62.6015 43.3103 62.3546 43.3103C62.1078 43.3103 61.9637 43.2488 61.7992 43.1055C61.6552 42.9621 61.5317 42.7982 61.4083 42.6548H60.1328V41.7331V41.7126ZM61.9432 42.2042C62.0255 42.3681 62.1283 42.45 62.2312 42.45C62.334 42.45 62.3135 42.45 62.3752 42.409C62.4369 42.3885 62.4781 42.3066 62.4781 42.1837C62.4781 42.0608 62.4781 42.0198 62.4369 41.9174C62.3958 41.815 62.3546 41.7331 62.2723 41.6716C62.19 41.6102 62.1078 41.5897 62.0049 41.6102C61.9432 41.6102 61.9226 41.6716 61.8815 41.7126C61.8609 41.7536 61.8403 41.815 61.8403 41.8765C61.8403 41.9379 61.8403 41.9994 61.8403 42.0403C61.8403 42.0813 61.8815 42.1427 61.902 42.2042H61.9432Z"
            fill="#016B80"/>
        <path
            d="M35.9399 56.4402H35.8165C35.549 56.5631 35.3844 56.6041 35.3433 56.6041C35.0758 56.5631 34.8496 56.4812 34.7055 56.3173C34.541 56.1534 34.397 56.092 34.2941 56.092C34.1501 56.092 34.0061 56.1944 33.9238 56.3583C33.8209 56.5016 33.7798 56.6655 33.7798 56.8089C33.8209 57.1981 33.8827 57.5463 33.9032 57.8945C33.9444 58.2427 33.9649 58.509 33.9649 58.7138C33.9649 59.5741 33.8004 60.2091 33.4918 60.6188C33.3272 60.7007 33.1626 60.8031 32.998 60.8851C32.998 60.7622 33.0186 60.4959 33.1215 60.0657C33.2243 59.6356 33.2449 59.3898 33.2449 59.3488C33.2449 59.144 33.2038 58.7548 33.1421 58.1608C33.0598 57.5668 33.0392 56.9523 33.0392 56.3173C33.0392 55.6823 33.1832 55.2726 33.4918 55.1088C33.7181 55.0473 33.9444 54.9654 34.1912 54.9039C34.253 54.6581 34.3558 54.4328 34.541 54.2485C34.7261 54.0641 34.973 53.9822 35.2816 53.9822C35.5902 53.9822 35.9193 54.1256 36.1045 54.4123C36.3102 54.6991 36.3925 55.0268 36.3925 55.3955C36.3925 55.7642 36.4542 55.7028 36.5982 55.7642C36.7422 55.8257 36.9068 55.8666 37.0919 55.8666H37.1948C37.2154 55.8666 37.2565 55.8666 37.2565 55.8666V56.7884H37.1742C37.1331 56.7884 37.0919 56.7884 37.0508 56.7884C36.7833 56.7884 36.5159 56.7679 36.269 56.727C36.0222 56.686 35.9193 56.6041 35.9399 56.4811V56.4402ZM35.0141 55.4775C35.117 55.6208 35.2199 55.6618 35.3639 55.6209C35.4256 55.6004 35.4873 55.5594 35.5079 55.4979C35.5284 55.4365 35.549 55.375 35.549 55.2931C35.549 55.2112 35.5079 55.1088 35.4256 55.0473C35.3433 54.9859 35.261 54.9654 35.1581 54.9654C35.0141 55.0063 34.9524 55.1088 34.9524 55.2931C34.9524 55.4775 34.9524 55.4365 35.0141 55.4979V55.4775Z"
            fill="#016B80"/>
        <path
            d="M36.9479 55.8257H37.5856C37.8531 55.8257 37.9971 55.8257 38.0176 55.8257C38.0382 55.8257 38.2028 55.8667 38.4702 55.9281C38.4702 55.9076 38.4908 55.8667 38.4908 55.8462C38.4908 55.8257 38.4908 55.7847 38.4908 55.7438C38.4908 55.6823 38.4908 55.6209 38.4497 55.5799C38.4291 55.5389 38.4085 55.5185 38.3879 55.4775C38.3879 55.4365 38.2851 55.416 38.1411 55.416C37.9971 55.416 37.8942 55.3751 37.8119 55.2727C37.7296 55.1702 37.6679 55.0473 37.6679 54.9244C37.6679 54.8015 37.7296 54.6377 37.8531 54.5148C37.9765 54.3714 38.1411 54.3099 38.3468 54.3099C38.5525 54.3099 38.676 54.4533 38.8817 54.7401C39.0668 55.0269 39.1697 55.3751 39.1697 55.7847C39.1697 56.1944 39.108 56.3583 39.0051 56.5836C38.9023 56.8089 38.7582 56.9113 38.5937 56.9113C38.5114 56.8704 38.4085 56.8499 38.2645 56.8089C38.1205 56.7679 37.8531 56.7475 37.4416 56.7475H36.9067V55.8257H36.9479ZM37.2976 58.2018C37.2976 58.0994 37.3388 57.9969 37.4416 57.8945C37.5445 57.7921 37.6679 57.7511 37.8325 57.7511C37.9971 57.7511 38.1205 57.7921 38.1822 57.874C38.2439 57.956 38.2851 58.0584 38.2851 58.2223C38.2851 58.3861 38.2439 58.4681 38.1411 58.591C38.0588 58.6934 37.9148 58.7548 37.7502 58.7548C37.5856 58.7548 37.5651 58.6934 37.4416 58.591C37.3388 58.4681 37.277 58.3656 37.277 58.2223L37.2976 58.2018ZM38.4908 58.0994C38.4908 57.9969 38.532 57.8945 38.6348 57.7921C38.7377 57.6897 38.8611 57.6487 39.0257 57.6487C39.1903 57.6487 39.3343 57.6897 39.396 57.7716C39.4577 57.8536 39.4988 57.9765 39.4988 58.0994C39.4988 58.2223 39.4371 58.4271 39.3137 58.509C39.1903 58.591 39.0463 58.6319 38.8817 58.6319C38.7994 58.591 38.6965 58.55 38.6142 58.4886C38.5319 58.4271 38.4908 58.2837 38.4908 58.0994Z"
            fill="#016B80"/>
        <path
            d="M43.5103 56.7475H43.1194C42.8108 56.7475 42.6051 56.9728 42.4611 57.4029C42.3171 57.8331 42.0702 58.3042 41.6999 58.8163C41.3296 59.3284 40.7536 59.7585 39.9718 60.1272C39.1901 60.4959 38.5318 60.6803 37.9763 60.6803C36.7008 60.6803 35.7545 60.3526 35.1579 59.7176C34.5613 59.0826 34.2116 58.4886 34.1293 57.9355C34.047 57.3825 34.0059 57.0752 34.0059 57.0138V56.7065C34.0059 56.686 34.0059 56.6655 34.0264 56.6655C34.0881 56.9728 34.1704 57.3005 34.2733 57.6283C34.3556 57.9765 34.4996 58.2837 34.6847 58.5705C34.8699 58.8573 35.2402 59.1645 35.8162 59.4718C36.3922 59.779 37.0711 59.9224 37.8529 59.9224C38.6346 59.9224 38.8198 59.779 39.4164 59.4718C40.013 59.1645 40.5273 58.7753 40.9387 58.3042C40.9799 58.2223 41.1239 57.956 41.3707 57.5054C41.597 57.0547 41.7205 56.768 41.7205 56.6451C41.7205 56.5222 41.6587 56.5222 41.5353 56.3993C41.4119 56.2764 41.3502 56.092 41.3502 55.8462C41.3502 55.6004 41.4119 55.498 41.5147 55.4161C41.6176 55.3341 41.7616 55.2932 41.9468 55.2932C42.1319 55.2932 42.3376 55.3751 42.4611 55.539C42.5845 55.7028 42.7079 55.7848 42.8314 55.7848H43.5103V56.7065V56.7475Z"
            fill="#016B80"/>
        <path
            d="M53.591 56.7474H53.1179C53.0356 56.8499 52.9533 56.9113 52.871 56.9523C52.7887 56.9932 52.7064 57.0137 52.6036 57.0137C52.4595 57.0137 52.3361 56.9932 52.2333 56.9318C52.1304 56.8703 52.0481 56.8294 51.9864 56.7474H43.2432V55.8257H52.295C52.295 55.5389 52.2333 55.3341 52.1098 55.1907C51.9864 55.0473 51.863 54.9859 51.7189 54.9859H45.3621C44.9095 54.9859 44.4981 54.9039 44.1689 54.7401C43.8398 54.5762 43.6752 54.3099 43.6752 53.9207C43.6752 53.5315 43.9838 52.9375 44.6009 52.4254C45.2181 51.8929 45.8353 51.6266 46.4936 51.6266C47.1519 51.6266 47.049 51.688 47.193 51.7905C47.337 51.8929 47.4193 52.0977 47.4193 52.3845C47.4193 52.6712 47.3988 52.6917 47.3371 52.7532C47.2753 52.8146 47.1519 52.8556 46.9462 52.8556C46.7405 52.8556 46.5759 52.7941 46.4524 52.6712C46.329 52.5483 46.2261 52.4869 46.1233 52.4869C46.0204 52.4869 45.6913 52.6508 45.2387 52.999C44.7861 53.3472 44.5804 53.6544 44.5804 53.9002C44.5804 54.146 44.7038 54.1256 44.9301 54.146C45.1564 54.187 45.6295 54.2075 46.329 54.2075H51.863C52.3155 54.2075 52.6653 54.3918 52.8916 54.7401C53.1179 55.0883 53.2413 55.457 53.2413 55.8257H53.5704V56.7474H53.591Z"
            fill="#016B80"/>
        <path
            d="M55.5863 55.0064C55.5863 55.498 55.5246 55.9691 55.3806 56.4607C55.2571 56.9318 55.0103 57.1776 54.64 57.1776C54.2697 57.1776 54.496 57.1161 54.3725 56.9728C54.2491 56.8294 54.1462 56.7679 54.0639 56.7679H53.4468V55.8462H54.2902C54.3725 55.8462 54.4548 55.8667 54.5371 55.9281C54.6194 55.9691 54.6811 56.01 54.7223 56.051C54.7223 55.8052 54.7634 55.5184 54.784 55.2112C54.784 54.9039 54.8045 54.6172 54.8045 54.3509C54.8045 54.0846 54.784 53.7364 54.7223 53.4906C54.6605 53.2448 54.6194 53.0604 54.5988 52.917C54.5783 52.7737 54.4548 52.5688 54.2697 52.2616C54.0845 51.9543 53.9817 51.688 53.9817 51.4422C53.9817 51.1964 54.0639 51.0121 54.2285 50.8482C54.3931 50.6843 54.5783 50.6024 54.7428 50.6024C54.9074 50.6024 54.9691 50.6843 55.0926 50.8482C55.216 51.0121 55.2571 51.1964 55.2571 51.3808C55.2571 51.5651 55.2571 51.5447 55.2366 51.6676C55.2366 51.7905 55.2366 51.8724 55.2366 51.9134C55.2366 52.2206 55.2777 52.5893 55.3394 52.9785C55.4011 53.3677 55.4629 53.634 55.4834 53.7773C55.4834 53.9207 55.5246 54.1051 55.5657 54.3509C55.6069 54.5967 55.6069 54.8015 55.6069 55.0268L55.5863 55.0064Z"
            fill="#016B80"/>
        <path
            d="M56.4505 52.2821C56.4299 52.1182 56.3682 51.9953 56.3065 51.9134C56.2242 51.8314 56.1625 51.729 56.0802 51.6266C56.0391 51.3398 56.1419 51.094 56.3476 50.8482C56.5534 50.6229 56.7797 50.5 57.006 50.5C57.2322 50.5 57.294 50.5819 57.3557 50.7253C57.4174 50.8687 57.438 50.9916 57.438 51.094C57.3968 51.2374 57.3557 51.4013 57.294 51.5856C57.2528 51.7495 57.2117 51.9543 57.2117 52.1592C57.2117 52.5688 57.2528 53.1014 57.3351 53.7569C57.4174 54.3918 57.4585 54.8835 57.4585 55.2317C57.4585 55.5799 57.294 55.8871 56.9854 56.3787C56.6768 56.8703 56.2653 57.1981 55.7305 57.3415C56.0185 56.9932 56.2036 56.727 56.3271 56.5221C56.4299 56.3173 56.5122 56.1125 56.5534 55.9281C56.5945 55.7438 56.6356 55.5594 56.6356 55.4365C56.6356 55.3136 56.6356 55.1702 56.6356 55.0473C56.6356 54.9244 56.6356 54.781 56.6356 54.6172C56.6356 54.4533 56.6151 54.2689 56.5945 54.1256L56.4299 52.323L56.4505 52.2821Z"
            fill="#016B80"/>
        <path
            d="M64.2678 57.4849C64.2678 57.6282 64.2267 57.874 64.1444 58.2018C64.0621 58.5295 63.7741 58.9187 63.2803 59.3488C62.7866 59.779 62.1283 60.1272 61.326 60.3935C60.5031 60.6598 59.7419 60.8032 59.0219 60.8032C58.3018 60.8032 58.3224 60.7417 57.8904 60.6393C57.4584 60.5369 57.0264 60.2501 56.5944 59.779C56.1623 59.3284 55.936 58.7343 55.936 58.0174C55.936 57.3005 55.9566 57.5668 55.9978 57.3824C56.0389 57.1776 56.0595 57.0752 56.08 57.0342C56.08 56.9933 56.1623 56.9113 56.2858 56.7679C56.3063 56.8294 56.3269 56.9318 56.3269 57.0752C56.3269 57.2186 56.3269 57.28 56.3269 57.4439C56.3269 57.6078 56.3269 57.7102 56.3269 57.7307C56.3269 57.8945 56.3269 58.0174 56.3269 58.0994C56.3269 58.1813 56.3681 58.3656 56.4503 58.6319C56.5326 58.8777 56.7384 59.144 57.0675 59.4103C57.3967 59.6766 57.767 59.8405 58.1373 59.9224C58.5076 60.0043 58.8367 60.0453 59.1453 60.0453C60.0916 60.0453 60.9762 59.82 61.8403 59.3488C62.7043 58.8777 63.2598 58.2427 63.5272 57.4234C63.5684 57.321 63.5066 57.1571 63.3421 56.9523C63.1775 56.7475 63.1158 56.5631 63.1158 56.4197C63.1158 56.2763 63.1158 56.2968 63.1569 56.2149C63.1775 56.133 63.2392 56.051 63.3215 55.9896C63.4038 55.9281 63.5066 55.9076 63.6095 55.9076C63.7124 55.9076 63.7535 55.9076 63.8564 55.9486C63.9592 55.9896 64.0827 56.1125 64.2061 56.3173C64.3295 56.5426 64.3912 56.7679 64.3912 57.0342C64.3912 57.3005 64.3707 57.3415 64.309 57.4849H64.2678ZM61.9431 54.2075C62.1077 54.2075 62.2312 54.269 62.334 54.3714C62.4369 54.4738 62.478 54.5967 62.478 54.7401C62.478 54.8835 62.4369 55.0064 62.3752 55.0883C62.3134 55.1702 62.19 55.2112 62.0254 55.2112C61.8609 55.2112 61.7374 55.1702 61.6346 55.0678C61.5317 54.9654 61.4906 54.863 61.4906 54.7606C61.4906 54.6582 61.5523 54.5148 61.6551 54.3919C61.758 54.269 61.8609 54.228 61.9431 54.228V54.2075Z"
            fill="#016B80"/>
        <path
            d="M65.0908 50.6434C64.9673 50.6639 64.885 50.7048 64.8233 50.7663C64.7616 50.8277 64.7205 50.8687 64.6999 50.8687C64.5147 50.8687 64.3707 50.8277 64.2267 50.7048C64.0827 50.5819 64.021 50.459 64.021 50.3157C64.021 50.1723 64.0621 50.1518 64.1444 50.1108C64.2267 50.0699 64.309 50.0494 64.3707 50.0699C64.4736 50.1108 64.5764 50.1313 64.6793 50.1723C64.7822 50.1928 64.885 50.2132 64.9879 50.2132C65.2553 50.2132 65.5845 50.1928 65.9959 50.1313C66.3868 50.0699 66.6748 50.0494 66.8394 50.0494C67.004 50.0494 67.2508 50.1518 67.5389 50.3361C67.8269 50.5205 68.0326 50.7663 68.1149 51.0735C67.9297 50.9302 67.7857 50.8277 67.6829 50.7458C67.58 50.6639 67.436 50.6229 67.3126 50.5819C67.1891 50.541 67.0657 50.541 67.004 50.5205C66.9423 50.5 66.8394 50.5205 66.7571 50.5205C66.6748 50.5205 66.572 50.5205 66.4691 50.5205C66.3662 50.5205 66.2634 50.5205 66.1811 50.541L65.0908 50.6434ZM65.3788 52.5893C65.3582 52.4255 65.2965 52.3026 65.2348 52.2206C65.1525 52.1387 65.0908 52.0363 65.0085 51.9339C64.9673 51.6471 65.0702 51.4013 65.2759 51.1555C65.4816 50.9302 65.7079 50.8073 65.9342 50.8073C66.1605 50.8073 66.2222 50.8892 66.2839 51.0326C66.3457 51.176 66.3662 51.2989 66.3662 51.4013C66.3251 51.5447 66.2839 51.7085 66.2222 51.8929C66.1811 52.0568 66.1399 52.2616 66.1399 52.4459C66.1399 52.8556 66.1811 53.3882 66.2634 54.0436C66.3457 54.6786 66.3868 55.1702 66.3868 55.5184C66.3868 55.8667 66.2222 56.1739 65.9136 56.6655C65.6051 57.1571 65.1936 57.4849 64.6587 57.6282C64.9467 57.28 65.1319 57.0137 65.2553 56.8089C65.3582 56.6041 65.4405 56.3992 65.4816 56.2149C65.5228 56.0101 65.5639 55.8462 65.5639 55.7233C65.5639 55.5799 65.5639 55.457 65.5639 55.3341C65.5639 55.2112 65.5639 55.0678 65.5639 54.8835C65.5639 54.6991 65.5433 54.5352 65.5228 54.3919L65.3582 52.5893H65.3788Z"
            fill="#016B80"/>
        <path
            d="M70.7275 56.7475H70.3367C70.0281 56.7475 69.8224 56.9728 69.6784 57.4029C69.5343 57.8331 69.2875 58.3042 68.9172 58.8163C68.5469 59.3284 67.9709 59.7585 67.1891 60.1272C66.4074 60.4959 65.749 60.6803 65.1936 60.6803C63.9181 60.6803 62.9718 60.3526 62.3752 59.7176C61.7786 59.0826 61.4289 58.4886 61.3466 57.9355C61.2643 57.3825 61.2231 57.0752 61.2231 57.0138V56.7065C61.2231 56.686 61.2231 56.6655 61.2437 56.6655C61.3054 56.9728 61.3877 57.3005 61.4906 57.6283C61.5729 57.9765 61.7169 58.2837 61.902 58.5705C62.0872 58.8573 62.4575 59.1645 63.0335 59.4718C63.6095 59.779 64.2884 59.9224 65.0702 59.9224C65.8519 59.9224 66.0371 59.779 66.6337 59.4718C67.2302 59.1645 67.7446 58.7753 68.156 58.3042C68.1971 58.2223 68.3412 57.956 68.588 57.5054C68.8143 57.0547 68.9378 56.768 68.9378 56.6451C68.9378 56.5222 68.876 56.5222 68.7526 56.3993C68.6292 56.2764 68.5674 56.092 68.5674 55.8462C68.5674 55.6004 68.6292 55.498 68.732 55.4161C68.8349 55.3341 68.9789 55.2932 69.164 55.2932C69.3492 55.2932 69.5549 55.3751 69.6784 55.539C69.8018 55.7028 69.9252 55.7848 70.0487 55.7848H70.7275V56.7065V56.7475Z"
            fill="#016B80"/>
        <path
            d="M73.8548 56.7474H73.0936C72.9908 56.7474 72.8673 56.727 72.7233 56.6655C72.5793 56.6041 72.497 56.5836 72.4559 56.5836C72.2913 56.645 72.1473 56.686 72.0033 56.7065C71.8593 56.727 71.7359 56.7474 71.5919 56.7474H70.481V55.8257H71.4273C71.3656 55.8257 71.3038 55.7233 71.2421 55.5184C71.1804 55.3136 71.1598 55.1088 71.1598 54.9039C71.1598 54.5762 71.2627 54.3099 71.4684 54.146C71.6741 53.9617 71.921 53.8798 72.2502 53.8798C72.5793 53.8798 72.8879 54.0231 73.1142 54.3099C73.3405 54.5967 73.4639 54.9039 73.4639 55.2317C73.4639 55.2931 73.4639 55.3546 73.4228 55.4365C73.4228 55.5184 73.3611 55.6413 73.2994 55.8052H73.8754V56.727L73.8548 56.7474ZM71.5713 52.7941C71.5713 52.958 71.5301 53.0604 71.4273 53.1424C71.3244 53.2243 71.201 53.2448 71.057 53.2448C70.913 53.2448 70.8513 53.2038 70.769 53.1219C70.6867 53.0399 70.6455 52.9375 70.6455 52.7941C70.6455 52.6508 70.7073 52.5279 70.8101 52.4254C70.913 52.323 71.0158 52.2821 71.0981 52.2821C71.2833 52.2821 71.4067 52.323 71.4684 52.4254C71.5301 52.5279 71.5507 52.6508 71.5507 52.7737L71.5713 52.7941ZM72.7439 52.7941C72.7439 52.9375 72.7028 53.0604 72.5999 53.1424C72.5176 53.2243 72.3942 53.2653 72.2707 53.2653C71.9004 53.2653 71.7153 53.1219 71.7153 52.8556C71.7153 52.5893 71.777 52.5483 71.8799 52.4254C71.9827 52.3025 72.1473 52.2411 72.3325 52.2411C72.4148 52.2821 72.5176 52.3435 72.5999 52.405C72.6822 52.4664 72.7439 52.6098 72.7439 52.7941ZM72.065 55.2317C72.065 55.3341 72.1062 55.416 72.1473 55.4979C72.1885 55.5799 72.2296 55.6209 72.2913 55.6209C72.353 55.6209 72.3736 55.6004 72.4353 55.5389C72.497 55.4775 72.5382 55.416 72.5588 55.3546C72.5999 55.2931 72.5999 55.2112 72.5793 55.1293C72.5793 55.0268 72.5382 54.9449 72.497 54.863C72.4559 54.781 72.3736 54.7605 72.2296 54.781C72.1267 54.781 72.065 54.822 72.0445 54.863C72.0239 54.9039 72.0033 54.9654 72.0033 55.0063C72.0033 55.0473 72.0033 55.1293 72.0445 55.2317H72.065Z"
            fill="#016B80"/>
        <path
            d="M75.7059 55.0064C75.7059 55.498 75.6442 55.9691 75.5002 56.4607C75.3562 56.9523 75.1299 57.1776 74.7596 57.1776C74.3893 57.1776 74.6156 57.1161 74.4922 56.9728C74.3687 56.8294 74.2659 56.7679 74.1836 56.7679H73.5664V55.8462H74.4099C74.4922 55.8462 74.5744 55.8667 74.6567 55.9281C74.739 55.9691 74.8007 56.01 74.8419 56.051C74.8419 55.8052 74.883 55.5184 74.9036 55.2112C74.9242 54.9039 74.9242 54.6172 74.9242 54.3509C74.9242 54.0846 74.9036 53.7364 74.8419 53.4906C74.7802 53.2448 74.739 53.0604 74.7185 52.917C74.6979 52.7737 74.5744 52.5688 74.3893 52.2616C74.2041 51.9543 74.1013 51.688 74.1013 51.4422C74.1013 51.1964 74.1836 51.0121 74.3482 50.8482C74.5127 50.6843 74.6979 50.6024 74.8625 50.6024C75.027 50.6024 75.0888 50.6843 75.2122 50.8482C75.3151 51.0121 75.3768 51.1964 75.3768 51.3808C75.3768 51.5651 75.3768 51.5447 75.3562 51.6676C75.3562 51.7905 75.3562 51.8724 75.3562 51.9134C75.3562 52.2206 75.3973 52.5893 75.4591 52.9785C75.5208 53.3677 75.5825 53.634 75.6031 53.7773C75.6236 53.9207 75.6442 54.1051 75.6853 54.3509C75.7265 54.5967 75.7265 54.8015 75.7265 55.0268L75.7059 55.0064Z"
            fill="#016B80"/>
        <path
            d="M76.5701 52.2821C76.5495 52.1182 76.4878 51.9953 76.4261 51.9134C76.3438 51.8314 76.2821 51.729 76.1998 51.6266C76.1586 51.3398 76.2615 51.094 76.4672 50.8482C76.6729 50.6229 76.8992 50.5 77.1255 50.5C77.3518 50.5 77.4135 50.5819 77.4752 50.7253C77.537 50.8687 77.5575 50.9916 77.5575 51.094C77.5164 51.2374 77.4752 51.4013 77.4135 51.5856C77.3724 51.7495 77.3312 51.9543 77.3312 52.1592C77.3312 52.5688 77.3724 53.1014 77.4547 53.7569C77.537 54.3918 77.5987 54.8835 77.5987 55.2317C77.5987 55.5799 77.4341 55.8871 77.1255 56.3787C76.8169 56.8703 76.4055 57.1981 75.8706 57.3415C76.1586 56.9932 76.3438 56.727 76.4672 56.5221C76.5701 56.3173 76.6524 56.1125 76.6935 55.9281C76.7346 55.7233 76.7758 55.5594 76.7758 55.4365C76.7758 55.3136 76.7758 55.1702 76.7758 55.0473C76.7758 54.9244 76.7758 54.781 76.7758 54.6172C76.7758 54.4533 76.7552 54.2689 76.7346 54.1256L76.5701 52.323V52.2821Z"
            fill="#016B80"/>
        <path
            d="M50.032 70.1436C49.9908 70.1436 49.9291 70.1436 49.888 70.1231C49.8262 70.1231 49.7234 70.1231 49.5382 70.1231C49.3531 70.1231 49.2914 70.1231 49.2296 70.1641C49.1679 70.205 49.0445 70.3279 48.8799 70.5533C48.7153 70.7786 48.489 70.9424 48.1805 71.0449L48.1393 70.9015C48.201 70.7786 48.3245 70.6147 48.489 70.3894C48.6125 70.1436 48.6742 69.7544 48.6742 69.2218L48.1599 66.3542C48.057 66.1698 47.9336 65.965 47.8101 65.7601C47.6867 65.5553 47.625 65.3505 47.625 65.1456C47.625 64.8179 47.7073 64.5926 47.8924 64.4287C48.0776 64.2649 48.2422 64.1829 48.4067 64.1829C48.5713 64.1829 48.633 64.2444 48.7153 64.3673C48.7976 64.4902 48.8182 64.654 48.8182 64.8384C48.8182 65.0227 48.7976 65.1661 48.7359 65.4529C48.6948 65.7397 48.6742 65.924 48.6742 66.0059C48.7565 66.559 48.8388 67.0916 48.9416 67.5832C49.0445 68.0748 49.1268 68.4435 49.1885 68.6893C49.2502 68.9351 49.3119 69.1399 49.3325 69.2423H49.9908V70.1641L50.032 70.1436Z"
            fill="#016B80"/>
        <path
            d="M52.7065 70.1436H51.7602C51.6984 70.1436 51.6573 70.164 51.6162 70.164C51.5339 70.164 51.4516 70.1026 51.3693 69.9592C51.2664 69.8158 51.1841 69.7134 51.1018 69.6315C51.0196 69.7953 50.9373 69.9182 50.8961 70.0207C50.8344 70.1026 50.7521 70.1436 50.6493 70.1436H49.7646V69.2218H50.2172C50.711 69.2218 50.999 69.0784 51.0607 68.8121C51.1224 68.5254 51.2664 68.4025 51.431 68.4025C51.5956 68.4025 51.5544 68.5458 51.7396 68.8121C51.9247 69.0989 52.1305 69.2218 52.3979 69.2218H52.7065V70.1436ZM50.1144 71.434C50.1144 71.3316 50.1555 71.2292 50.2584 71.1268C50.3612 71.0243 50.4847 70.9834 50.6493 70.9834C50.8138 70.9834 50.9373 71.0243 50.999 71.1063C51.0607 71.1882 51.1018 71.2906 51.1018 71.4545C51.1018 71.6184 51.0607 71.7208 50.9578 71.8232C50.8756 71.9256 50.7315 71.9871 50.567 71.9871C50.4024 71.9871 50.3818 71.9256 50.2584 71.8232C50.1555 71.7003 50.0938 71.5774 50.0938 71.4545L50.1144 71.434ZM51.4104 71.393C51.4104 71.2906 51.4516 71.1882 51.5544 71.0858C51.6573 70.9834 51.7807 70.9424 51.9453 70.9424C52.1099 70.9424 52.2539 70.9834 52.3156 71.0653C52.3773 71.1472 52.4185 71.2701 52.4185 71.393C52.4185 71.5159 52.3568 71.7208 52.2333 71.8027C52.1099 71.8846 51.9659 71.9256 51.8013 71.9256C51.719 71.8846 51.6162 71.8437 51.5339 71.7822C51.4516 71.7208 51.4104 71.5774 51.4104 71.393Z"
            fill="#016B80"/>
        <path
            d="M55.4218 70.1436H54.4755C54.4138 70.1436 54.3726 70.164 54.3315 70.164C54.2492 70.164 54.1669 70.1026 54.0846 69.9592C53.9818 69.8158 53.8995 69.7134 53.8172 69.6315C53.7349 69.7953 53.6526 69.9182 53.6115 70.0207C53.5497 70.1026 53.4674 70.1436 53.3646 70.1436H52.48V69.2218H52.9326C53.4263 69.2218 53.7143 69.0784 53.776 68.8121C53.8377 68.5254 53.9818 68.4025 54.1463 68.4025C54.3109 68.4025 54.2698 68.5458 54.4549 68.8121C54.6401 69.0989 54.8458 69.2218 55.1132 69.2218H55.4218V70.1436ZM53.3029 71.2701C53.3029 71.1677 53.344 71.0653 53.4469 70.9629C53.5497 70.8605 53.6732 70.8195 53.8378 70.8195C54.0023 70.8195 54.1258 70.8605 54.1875 70.9424C54.2492 71.0243 54.2903 71.1268 54.2903 71.2906C54.2903 71.4545 54.2492 71.5569 54.1463 71.6593C54.064 71.7617 53.92 71.8232 53.7555 71.8232C53.5909 71.8232 53.5703 71.7617 53.4674 71.6593C53.3646 71.5569 53.3029 71.4135 53.3029 71.2906V71.2701Z"
            fill="#016B80"/>
        <path
            d="M58.1166 70.1436H57.1703C57.1086 70.1436 57.0675 70.164 57.0263 70.164C56.9646 70.164 56.8617 70.1026 56.7794 69.9592C56.6766 69.8158 56.5943 69.7134 56.512 69.6315C56.4297 69.7953 56.3474 69.9182 56.3063 70.0207C56.2446 70.1026 56.1623 70.1436 56.0594 70.1436H55.1748V69.2218H55.6274C56.1211 69.2218 56.4091 69.0784 56.4709 68.8121C56.5326 68.5458 56.6766 68.4025 56.8412 68.4025C57.0057 68.4025 56.9646 68.5458 57.1497 68.8121C57.3349 69.0989 57.5406 69.2218 57.8081 69.2218H58.1166V70.1436ZM55.5245 71.434C55.5245 71.3316 55.5657 71.2292 55.6685 71.1268C55.7714 71.0243 55.8948 70.9834 56.0594 70.9834C56.224 70.9834 56.3474 71.0243 56.4091 71.1063C56.4709 71.1882 56.512 71.2906 56.512 71.4545C56.512 71.6184 56.4709 71.7208 56.368 71.8232C56.2857 71.9256 56.1417 71.9871 55.9771 71.9871C55.8125 71.9871 55.792 71.9256 55.6685 71.8232C55.5657 71.7003 55.504 71.5774 55.504 71.4545L55.5245 71.434ZM56.8206 71.393C56.8206 71.2906 56.8617 71.1882 56.9646 71.0858C57.0675 70.9834 57.1909 70.9424 57.3555 70.9424C57.52 70.9424 57.664 70.9834 57.7258 71.0653C57.7875 71.1472 57.8286 71.2701 57.8286 71.393C57.8286 71.5159 57.7669 71.7208 57.6435 71.8027C57.52 71.8846 57.376 71.9256 57.2115 71.9256C57.1292 71.8846 57.0263 71.8437 56.944 71.7822C56.8617 71.7208 56.8206 71.5774 56.8206 71.393Z"
            fill="#016B80"/>
        <path
            d="M57.8701 69.2218H58.8576C58.9605 69.1809 59.0633 69.1604 59.1662 69.1194C59.269 69.0784 59.3308 69.017 59.3308 68.9351C59.269 68.341 59.1867 67.788 59.125 67.2349C59.0633 66.6819 59.0016 66.2927 58.981 66.0674C58.9399 65.8421 58.837 65.6167 58.6519 65.3709C58.4667 65.1251 58.3844 64.8793 58.3844 64.5926C58.3844 64.3058 58.4667 64.1624 58.6313 63.9985C58.7959 63.8347 58.981 63.7527 59.1662 63.7527C59.3513 63.7527 59.3925 63.8347 59.5159 63.9985C59.6188 64.1624 59.6805 64.3468 59.6805 64.5311C59.6805 64.7155 59.6805 64.6745 59.6805 64.8179C59.6805 64.9613 59.6805 65.0432 59.6805 65.0637C59.6805 65.3709 59.7216 65.7396 59.8039 66.1288C59.8862 66.518 59.9479 66.8662 59.9685 67.1325C59.9891 67.3988 60.0302 67.788 60.0508 68.3206C60.0714 68.8531 60.0919 69.1399 60.1331 69.1809C60.1536 69.1809 60.1948 69.1809 60.2771 69.1809C60.3388 69.1809 60.4211 69.1809 60.5034 69.1809H60.812V70.1026H59.9685C59.9068 70.3074 59.8039 70.5123 59.6188 70.7376C59.4336 70.9629 59.2485 71.1268 59.0427 71.1882C59.0427 71.0653 59.0839 70.9015 59.1456 70.6966C59.2073 70.4918 59.269 70.287 59.2896 70.0821H57.9524V69.1604L57.8701 69.2218Z"
            fill="#016B80"/>
        <path
            d="M60.462 69.2218H61.0998C61.3672 69.2218 61.5112 69.2218 61.5318 69.2218C61.5524 69.2218 61.7169 69.2628 61.9844 69.3242C61.9844 69.3038 62.005 69.2628 62.005 69.2423C62.005 69.2218 62.005 69.1809 62.005 69.1399C62.005 69.0784 62.005 69.017 61.9638 68.976C61.9432 68.9351 61.9227 68.9146 61.9021 68.8736C61.9021 68.8326 61.7992 68.8122 61.6552 68.8122C61.5112 68.8122 61.4084 68.7712 61.3261 68.6688C61.2438 68.5664 61.1821 68.4435 61.1821 68.3206C61.1821 68.1977 61.2438 68.0338 61.3672 67.9109C61.4907 67.7675 61.6552 67.7061 61.861 67.7061C62.0667 67.7061 62.1901 67.8494 62.3958 68.1362C62.581 68.423 62.6838 68.7712 62.6838 69.1809C62.6838 69.5905 62.6221 69.7544 62.5193 69.9797C62.4164 70.205 62.2724 70.3074 62.1078 70.3074C62.0255 70.2665 61.9227 70.246 61.7787 70.205C61.6347 70.1641 61.3672 70.1436 60.9558 70.1436H60.4209V69.2218H60.462ZM62.005 71.475C62.005 71.3726 62.0461 71.2702 62.149 71.1677C62.2518 71.0653 62.3753 71.0244 62.5398 71.0244C62.7044 71.0244 62.8484 71.0653 62.9101 71.1473C62.9719 71.2292 63.013 71.3521 63.013 71.475C63.013 71.5979 62.9513 71.8027 62.8279 71.8847C62.7044 71.9666 62.5604 72.0076 62.3958 72.0076C62.3135 71.9666 62.2107 71.9256 62.1284 71.8642C62.0461 71.8027 62.005 71.6594 62.005 71.475Z"
            fill="#016B80"/>
        <path
            d="M5.71929 99.1071H3.9295V98.9433C4.13522 98.9433 4.27923 98.9023 4.36152 98.8204C4.44381 98.7384 4.48495 98.595 4.48495 98.4107V96.8744H2.26315V98.4107C2.26315 98.7589 2.4483 98.9433 2.8186 98.9433V99.1071H1.02881V98.9433C1.23453 98.9433 1.39911 98.9023 1.46083 98.8204C1.54312 98.7384 1.58426 98.6155 1.58426 98.4107V95.502C1.58426 95.2972 1.54312 95.1743 1.46083 95.0924C1.37854 95.0104 1.23453 94.9695 1.02881 94.9695V94.8056H2.8186V94.9695C2.5923 94.9695 2.4483 95.0104 2.38658 95.0924C2.32486 95.1743 2.26315 95.2972 2.26315 95.502V96.6491H4.48495V95.502C4.48495 95.2972 4.44381 95.1743 4.36152 95.0924C4.27923 95.0104 4.13522 94.9695 3.9295 94.9695V94.8056H5.71929V94.9695C5.49299 94.9695 5.34899 95.0104 5.28727 95.0924C5.20498 95.1743 5.16384 95.2972 5.16384 95.502V98.4107C5.16384 98.6155 5.20498 98.7589 5.28727 98.8204C5.36956 98.9023 5.51357 98.9433 5.71929 98.9433V99.1071Z"
            fill="#016B80"/>
        <path
            d="M11.1296 96.772C11.1296 97.2226 10.9856 97.6323 10.7182 98.042C10.4507 98.4312 10.101 98.7384 9.66897 98.9432C9.2781 99.1276 8.86665 99.2095 8.43463 99.2095C7.79689 99.2095 7.28259 99.0252 6.87114 98.636C6.45969 98.2468 6.2334 97.7757 6.2334 97.2021C6.2334 96.6286 6.50084 95.9731 7.01515 95.4815C7.52945 94.9899 8.14662 94.7441 8.86665 94.7441C9.58668 94.7441 10.3273 95.0514 10.7799 95.6454C11.0062 95.9527 11.1296 96.3418 11.1296 96.772ZM10.5124 97.366C10.5124 96.9563 10.4301 96.5672 10.245 96.1985C10.0393 95.8093 9.75126 95.5225 9.40153 95.3177C9.0518 95.1333 8.72264 95.0514 8.43463 95.0514C7.9409 95.0514 7.5706 95.2153 7.28259 95.5225C7.01515 95.8093 6.87114 96.178 6.87114 96.6286C6.87114 97.0792 7.05629 97.7552 7.42659 98.1854C7.83804 98.677 8.35234 98.9023 8.99008 98.9023C9.62783 98.9023 9.83355 98.7384 10.1216 98.4312C10.389 98.1444 10.533 97.7757 10.533 97.3455L10.5124 97.366Z"
            fill="#016B80"/>
        <path
            d="M14.9355 97.8986L14.627 99.2915H14.4624C14.4624 99.189 14.4007 99.1276 14.2978 99.1276H11.6646V98.9637C11.8703 98.9637 12.0349 98.9228 12.0966 98.8408C12.1789 98.7589 12.22 98.636 12.22 98.4312V95.543C12.22 95.3382 12.1789 95.2153 12.0966 95.1333C12.0143 95.0514 11.8703 95.0104 11.6646 95.0104V94.8466H13.4543V95.0104C13.228 95.0104 13.084 95.0514 13.0017 95.1333C12.9195 95.2153 12.8783 95.3382 12.8783 95.543V98.9637H13.3515C14.0921 98.9637 14.5241 98.6155 14.6681 97.8986H14.9355Z"
            fill="#016B80"/>
        <path
            d="M19.4204 94.99C19.153 94.99 18.865 95.2358 18.5564 95.7478L17.4455 97.4684V98.4107C17.4455 98.7589 17.6306 98.9228 18.0009 98.9433V99.1071H16.2111V98.9433C16.4169 98.9433 16.5814 98.9023 16.6431 98.8204C16.7254 98.7384 16.7666 98.6155 16.7666 98.4107V97.4684L15.8614 95.7888C15.738 95.5635 15.6351 95.3996 15.5528 95.2972C15.3882 95.0924 15.2237 95.0104 15.0591 94.99V94.8261H16.3757V94.99C16.2934 94.99 16.2317 95.0309 16.2317 95.0719C16.2317 95.1129 16.2317 95.1129 16.2317 95.1333L17.3838 97.2226C17.9803 96.3828 18.2684 95.7478 18.2684 95.3587C18.2684 94.9695 18.2066 95.0924 18.0832 95.0309C18.0009 94.99 17.8569 94.9695 17.6718 94.9695V94.8056H19.4204V94.9695V94.99Z"
            fill="#016B80"/>
        <path
            d="M26.518 99.7626C26.2917 99.9879 26.1477 100.152 26.0448 100.213C25.8185 100.398 25.6334 100.479 25.4482 100.479C25.2631 100.479 24.8722 100.295 24.3785 99.906C23.823 99.4758 23.4322 99.23 23.2264 99.1481C23.1647 99.1276 23.0824 99.1071 23.0207 99.1071C22.8356 99.1071 22.5681 99.2505 22.2595 99.5577V99.3529C22.383 99.2095 22.4858 99.0866 22.6298 98.9842C22.239 98.8408 21.9304 98.595 21.7041 98.2673C21.4984 97.9395 21.3955 97.5913 21.3955 97.1817C21.3955 96.3009 21.8481 95.6044 22.7327 95.0924C23.1236 94.867 23.5556 94.7441 24.0493 94.7441C24.8928 94.7441 25.5305 95.0514 25.9626 95.6864C26.1683 95.9936 26.2711 96.3418 26.2711 96.772C26.2711 97.2021 26.0654 97.8576 25.654 98.3083C25.2425 98.7589 24.7282 99.0457 24.111 99.1481C24.2756 99.189 24.5431 99.3529 24.9339 99.6397C25.3042 99.906 25.5511 100.029 25.7157 100.029C25.8803 100.029 26.1477 99.865 26.4974 99.5577V99.7626H26.518ZM25.6745 97.3251C25.6745 96.9154 25.5717 96.5467 25.3865 96.178C25.1808 95.7888 24.8928 95.502 24.5431 95.2972C24.2139 95.1128 23.8848 95.0104 23.5762 95.0104C23.103 95.0104 22.7121 95.1743 22.4241 95.4815C22.1567 95.7888 22.0127 96.1575 22.0127 96.5876C22.0127 97.4275 22.3624 98.0829 23.0619 98.5541C23.391 98.7589 23.7407 98.8818 24.1316 98.8818C24.5225 98.8818 24.9751 98.7179 25.2631 98.4107C25.5511 98.1034 25.6745 97.7552 25.6745 97.3251Z"
            fill="#016B80"/>
        <path
            d="M31.5375 94.99C31.0849 95.0514 30.8586 95.7478 30.8586 97.0793C30.8586 98.4107 30.8586 97.8167 30.8586 97.8781C30.838 98.1854 30.7557 98.4312 30.6117 98.6155C30.3237 99.0047 29.83 99.1891 29.0894 99.1891C28.3488 99.1891 27.7933 98.9842 27.5053 98.595C27.3613 98.4107 27.2996 98.1649 27.2996 97.8781V95.502C27.2996 95.2972 27.2584 95.1743 27.1762 95.0924C27.0939 95.0104 26.9499 94.9695 26.7441 94.9695V94.8056H28.5339V94.9695C28.3076 94.9695 28.1636 95.0104 28.1019 95.0924C28.0196 95.1743 27.9785 95.2972 27.9785 95.502V97.8576C27.9785 98.2878 28.1636 98.595 28.5134 98.7999C28.7191 98.9228 28.9659 98.9842 29.2745 98.9842C29.8917 98.9842 30.3031 98.7794 30.4883 98.3902C30.5706 98.1854 30.6323 97.8986 30.6323 97.4889C30.6323 96.8335 30.6323 96.3623 30.5912 96.0961C30.4883 95.3791 30.2826 95.0104 29.974 94.9695V94.8056H31.5786V94.9695L31.5375 94.99Z"
            fill="#016B80"/>
        <path
            d="M35.8373 99.1071H34.9527C34.7676 99.1071 34.6236 99.0047 34.4796 98.8204L33.0395 96.7515V98.4107C33.0395 98.7589 33.2247 98.9228 33.595 98.9433V99.1071H31.8052V98.9433C32.0109 98.9433 32.1755 98.9023 32.2372 98.8204C32.2989 98.7384 32.3606 98.6155 32.3606 98.4107V95.502C32.3606 95.2972 32.3195 95.1743 32.2372 95.0924C32.1549 95.0104 32.0109 94.9695 31.8052 94.9695V94.8056H34.1298C34.8087 94.8056 35.1585 95.0514 35.1585 95.543C35.1585 96.0346 34.7676 96.5672 34.0064 96.9768L34.8293 98.1239C35.1996 98.636 35.5288 98.9023 35.8373 98.9228V99.0866V99.1071ZM34.4179 96.0346C34.4179 95.7683 34.3561 95.543 34.2327 95.3382C34.0887 95.0924 33.883 94.9695 33.595 94.9695C33.307 94.9695 33.2041 95.0309 33.0395 95.1333V96.5262C33.3275 96.7106 33.5744 96.813 33.7801 96.813C34.2121 96.813 34.4179 96.5467 34.4179 96.0141V96.0346Z"
            fill="#016B80"/>
        <path
            d="M40.1776 99.1071H38.861V98.9432H38.9433C38.9844 98.9432 39.005 98.9023 39.005 98.8408C39.005 98.7794 39.005 98.7999 39.005 98.7589L38.573 97.5913H36.9684C36.8038 98.0215 36.7215 98.3492 36.7215 98.5541C36.7215 98.7589 36.8655 98.9432 37.1535 98.9432H37.3387V99.1071H35.6929V98.9432C35.9603 98.9432 36.2072 98.6565 36.4335 98.1444L37.9352 94.6417H38.141L39.437 98.0624C39.5193 98.3083 39.6222 98.4926 39.6839 98.595C39.8279 98.8203 39.9925 98.9228 40.1571 98.9228V99.0866L40.1776 99.1071ZM38.4701 97.407L37.8118 95.6249L37.0506 97.407H38.4907H38.4701Z"
            fill="#016B80"/>
        <path
            d="M45.1974 94.9899C44.7448 95.0309 44.5391 95.7069 44.5391 96.9973V99.271H44.3745L41.227 95.3586V96.6081C41.227 97.1817 41.2475 97.6118 41.2887 97.9191C41.3915 98.5745 41.5973 98.9228 41.9058 98.9637V99.1276H40.3218V98.9637C40.7744 98.9023 40.9801 98.1239 40.9801 96.6491V95.502C40.9801 95.3177 40.9389 95.1948 40.8567 95.1128C40.7744 95.0514 40.6304 95.0104 40.4246 95.0104V94.8466H41.6178L44.2717 98.1239V97.1202C44.2717 95.7478 44.0454 95.0514 43.6133 95.0104V94.8466H45.218V95.0104L45.1974 94.9899Z"
            fill="#016B80"/>
        <path
            d="M51.4719 98.2877C50.6902 98.9022 49.9907 99.2095 49.353 99.2095C48.7153 99.2095 48.2627 99.0047 47.8718 98.595C47.5221 98.2058 47.3369 97.7347 47.3369 97.1612C47.3369 96.2804 47.7484 95.5839 48.5713 95.0923C48.9621 94.8465 49.4353 94.7236 49.9907 94.7236C50.5462 94.7236 50.9371 94.7851 51.3485 94.9285V95.9322H51.0811C51.0399 95.6044 50.8959 95.3586 50.6079 95.1743C50.3405 95.0104 50.0319 94.9285 49.6616 94.9285C49.1267 94.9285 48.6947 95.1128 48.3861 95.4815C48.0981 95.8297 47.9541 96.2394 47.9541 96.7515C47.9541 97.2636 48.1187 97.7347 48.4272 98.1034C48.777 98.4926 49.2296 98.6974 49.785 98.6974C50.3405 98.6974 50.8753 98.4926 51.4514 98.0624V98.2673L51.4719 98.2877Z"
            fill="#016B80"/>
        <path
            d="M56.8415 96.772C56.8415 97.2226 56.6975 97.6323 56.4301 98.042C56.1626 98.4516 55.8129 98.7384 55.3809 98.9432C54.99 99.1276 54.5786 99.2095 54.1465 99.2095C53.5088 99.2095 52.9945 99.0252 52.5831 98.636C52.1716 98.2468 51.9453 97.7757 51.9453 97.2021C51.9453 96.6286 52.2127 95.9731 52.7271 95.4815C53.2414 94.9899 53.8585 94.7441 54.5786 94.7441C55.2986 94.7441 56.0392 95.0514 56.4918 95.6454C56.7181 95.9527 56.8415 96.3418 56.8415 96.772ZM56.2243 97.366C56.2243 96.9563 56.1215 96.5672 55.9569 96.1985C55.7512 95.8093 55.4632 95.5225 55.1134 95.3177C54.7637 95.1333 54.4346 95.0514 54.1465 95.0514C53.6528 95.0514 53.2825 95.2153 52.9945 95.5225C52.7271 95.8093 52.5831 96.178 52.5831 96.6286C52.5831 97.0792 52.7682 97.7552 53.1385 98.1854C53.5499 98.677 54.0643 98.9023 54.702 98.9023C55.3397 98.9023 55.5455 98.7384 55.8335 98.4312C56.1009 98.1444 56.2449 97.7757 56.2449 97.3455L56.2243 97.366Z"
            fill="#016B80"/>
        <path
            d="M63.6919 99.1071H61.9021V98.9432C62.0873 98.9432 62.2107 98.9023 62.293 98.8408C62.3753 98.7794 62.3958 98.6565 62.3958 98.4721C62.3958 98.2878 62.3958 98.4107 62.3958 98.3492L62.1078 95.6864C61.6964 96.3623 61.3878 96.8949 61.2232 97.2841L60.2975 99.2505H60.1329L58.4254 95.3586L58.302 96.5672C58.2402 97.1202 58.2197 97.5299 58.2197 97.8576C58.2197 98.554 58.4048 98.9227 58.7957 98.9432V99.1071H57.1499V98.9432C57.3556 98.9023 57.5202 98.7384 57.6436 98.4516C57.7054 98.3287 57.7671 98.1034 57.8494 97.7552C57.9522 97.3455 58.0345 96.8949 58.0757 96.4033L58.1579 95.502C58.1579 95.4815 58.1579 95.4406 58.1579 95.3586C58.1579 95.1948 58.1168 95.0923 58.0345 95.0309C57.9728 94.9694 57.8494 94.949 57.6642 94.949V94.7851H58.8574L60.4209 98.3287L61.3261 96.3828C61.6552 95.6454 61.8815 95.1128 61.9844 94.7851H63.2804V94.949C63.0953 94.949 62.9513 94.9899 62.869 95.0309C62.7661 95.0923 62.725 95.2153 62.725 95.3791C62.725 95.543 62.725 95.4406 62.725 95.4611L62.9924 98.1444C63.013 98.4311 63.0541 98.6155 63.1159 98.6974C63.1982 98.8408 63.3833 98.9023 63.6507 98.9227V99.0866L63.6919 99.1071Z"
            fill="#016B80"/>
        <path
            d="M67.4157 95.6044C67.4157 95.9731 67.2305 96.3214 66.8808 96.6491C66.5105 96.9768 66.1402 97.1407 65.7288 97.1407C65.3173 97.1407 65.379 97.0997 65.1733 97.0178V98.4516C65.1733 98.7999 65.3585 98.9637 65.7288 98.9842V99.1481H63.939V98.9842C64.1653 98.9842 64.3093 98.9432 64.371 98.8613C64.4533 98.7794 64.4944 98.6565 64.4944 98.4516V95.543C64.4944 95.3382 64.4533 95.2153 64.371 95.1333C64.2887 95.0514 64.1447 95.0104 63.939 95.0104V94.8466H66.2431C67.0248 94.8466 67.4157 95.0924 67.4157 95.6044ZM66.6957 96.0141C66.6957 95.7273 66.6339 95.502 66.4899 95.3177C66.3459 95.0924 66.1196 94.9899 65.8316 94.9899C65.5436 94.9899 65.379 95.0514 65.1733 95.1948V96.5262C65.4819 96.731 65.7699 96.8539 66.0168 96.8539C66.4694 96.8539 66.6957 96.5672 66.6957 96.0141Z"
            fill="#016B80"/>
        <path
            d="M70.8306 97.8986L70.522 99.2915H70.3574C70.3574 99.189 70.2957 99.1276 70.1928 99.1276H67.5596V98.9637C67.7653 98.9637 67.9299 98.9228 67.9916 98.8408C68.0739 98.7589 68.115 98.636 68.115 98.4312V95.543C68.115 95.3382 68.0739 95.2153 67.9916 95.1333C67.9093 95.0514 67.7653 95.0104 67.5596 95.0104V94.8466H69.3494V95.0104C69.1231 95.0104 68.9791 95.0514 68.8968 95.1333C68.8145 95.2153 68.7939 95.3382 68.7939 95.543V98.9637H69.2671C70.0077 98.9637 70.4397 98.6155 70.5837 97.8986H70.8511H70.8306Z"
            fill="#016B80"/>
        <path
            d="M74.3277 97.8781L74.0191 99.2505H73.834C73.834 99.1481 73.7928 99.1071 73.69 99.1071H71.0361V98.9433C71.2624 98.9433 71.4064 98.9023 71.4682 98.8204C71.5504 98.7384 71.5916 98.6155 71.5916 98.4107V95.5225C71.5916 95.3177 71.5504 95.1948 71.4682 95.1129C71.3859 95.0309 71.2419 94.99 71.0361 94.99V94.8261H73.6488C73.8134 94.8261 73.8957 94.7646 73.8957 94.6622H74.0603V95.9322H73.7928C73.7928 95.2972 73.3608 94.99 72.5379 94.99H72.2705C72.2499 95.2358 72.2293 95.4611 72.2293 95.6454C72.2293 96.3828 72.5791 96.7515 73.2579 96.7515H73.6077V96.9769L72.2705 97.0178V98.9433H72.6613C73.4842 98.9433 73.9574 98.595 74.0603 97.8781H74.3277Z"
            fill="#016B80"/>
        <path
            d="M78.8743 99.1071H77.4136V98.9433C77.5165 98.9433 77.5577 98.9023 77.5577 98.8408C77.5577 98.7794 77.5577 98.7999 77.5371 98.7794L76.4879 97.1612C75.9324 97.8167 75.665 98.3083 75.665 98.6155C75.665 98.9228 75.8296 98.9433 76.1587 98.9637V99.1276H74.4307V98.9637C74.7392 98.9433 75.1096 98.677 75.5004 98.1649L76.385 97.0178L75.5827 95.7683C75.2536 95.2767 74.945 95.0104 74.657 94.99V94.8261H76.0764V94.99C75.9736 94.99 75.9324 95.0309 75.9324 95.0719C75.9324 95.1129 75.9324 95.1129 75.9324 95.1129L76.8171 96.4443C77.2491 95.8912 77.4548 95.502 77.4548 95.2972C77.4548 95.0924 77.2696 94.9695 76.8993 94.9695V94.8056H78.648V94.9695C78.3188 95.0104 77.9485 95.2767 77.5782 95.7478L76.8993 96.6081L78.072 98.3697C78.2365 98.6155 78.4011 98.7794 78.6068 98.8613C78.6891 98.9023 78.7714 98.9228 78.8949 98.9433V99.1071H78.8743Z"
            fill="#016B80"/>
        <path
            d="M82.7829 99.1071H80.9932V98.9433C81.1989 98.9433 81.3635 98.9023 81.4252 98.8204C81.4869 98.7384 81.5486 98.6155 81.5486 98.4107V95.502C81.5486 95.2972 81.5075 95.1743 81.4252 95.0924C81.3429 95.0104 81.1989 94.9695 80.9932 94.9695V94.8056H82.7829V94.9695C82.5567 94.9695 82.4126 95.0104 82.3509 95.0924C82.2686 95.1743 82.2275 95.2972 82.2275 95.502V98.4107C82.2275 98.7589 82.4126 98.9228 82.7829 98.9433V99.1071Z"
            fill="#016B80"/>
        <path
            d="M88.0289 94.9899C87.5764 95.0309 87.3706 95.7069 87.3706 96.9973V99.271H87.2061L84.0585 95.3586V96.6081C84.0585 97.1817 84.0791 97.6118 84.1202 97.9191C84.2231 98.5745 84.4288 98.9228 84.7374 98.9637V99.1276H83.1533V98.9637C83.6059 98.9023 83.8116 98.1239 83.8116 96.6491V95.502C83.8116 95.3177 83.7705 95.1948 83.6882 95.1128C83.6059 95.0514 83.4619 95.0104 83.2562 95.0104V94.8466H84.4494L87.1032 98.1239V97.1202C87.1032 95.7478 86.8769 95.0514 86.4449 95.0104V94.8466H88.0495V95.0104L88.0289 94.9899Z"
            fill="#016B80"/>
        <path
            d="M93.4189 97.8986L93.1104 99.2915H92.9458C92.9458 99.189 92.8841 99.1276 92.7812 99.1276H90.1479V98.9637C90.3537 98.9637 90.5182 98.9228 90.58 98.8408C90.6623 98.7589 90.7034 98.636 90.7034 98.4312V95.543C90.7034 95.3382 90.6623 95.2153 90.58 95.1333C90.4977 95.0514 90.3537 95.0104 90.1479 95.0104V94.8466H91.9377V95.0104C91.7114 95.0104 91.5674 95.0514 91.4851 95.1333C91.4029 95.2153 91.3823 95.3382 91.3823 95.543V98.9637H91.8554C92.596 98.9637 93.0281 98.6155 93.1721 97.8986H93.4395H93.4189Z"
            fill="#016B80"/>
        <path
            d="M95.4348 99.1071H93.645V98.9433C93.8507 98.9433 94.0153 98.9023 94.077 98.8204C94.1387 98.7384 94.2005 98.6155 94.2005 98.4107V95.502C94.2005 95.2972 94.1593 95.1743 94.077 95.0924C93.9947 95.0104 93.8507 94.9695 93.645 94.9695V94.8056H95.4348V94.9695C95.2085 94.9695 95.0645 95.0104 95.0028 95.0924C94.9205 95.1743 94.8794 95.2972 94.8794 95.502V98.4107C94.8794 98.7589 95.0645 98.9228 95.4348 98.9433V99.1071Z"
            fill="#016B80"/>
        <path
            d="M99.4468 97.6118C99.4468 98.0419 99.241 98.3902 98.8502 98.6974C98.4799 98.9842 98.0478 99.1276 97.5747 99.1276H95.8672V98.9637C96.0729 98.9637 96.2375 98.9227 96.2992 98.8408C96.3815 98.7589 96.4226 98.636 96.4226 98.4311V95.5225C96.4226 95.3177 96.3815 95.1947 96.2992 95.1128C96.2169 95.0309 96.0729 94.9899 95.8672 94.9899V94.826H98.0684C98.4182 94.826 98.6856 94.867 98.8707 94.9694C99.1176 95.0923 99.2205 95.2972 99.2205 95.5839C99.2205 96.0346 98.8707 96.4647 98.1919 96.8334C98.5827 96.8334 98.8707 96.8744 99.0559 96.9563C99.3233 97.0792 99.4468 97.2841 99.4468 97.5913V97.6118ZM98.5827 96.0346C98.5827 95.7478 98.5004 95.5225 98.3564 95.3177C98.1919 95.0923 97.9656 94.9694 97.6775 94.9694C97.3895 94.9694 97.2455 95.0309 97.1015 95.1333V96.69H97.8216C98.3359 96.69 98.5827 96.4647 98.5827 96.0141V96.0346ZM98.7473 98.0215C98.7473 97.6732 98.6239 97.3865 98.3976 97.1816C98.1713 96.9768 97.8627 96.8744 97.4718 96.8744H97.1015V98.636C97.3484 98.8203 97.6158 98.9022 97.8833 98.9022C98.1507 98.9022 98.377 98.8203 98.521 98.636C98.665 98.4721 98.7473 98.2673 98.7473 98.0215Z"
            fill="#016B80"/>
        <path
            d="M104.219 94.99C103.952 94.99 103.664 95.2358 103.355 95.7478L102.244 97.4684V98.4107C102.244 98.7589 102.429 98.9228 102.8 98.9433V99.1071H101.01V98.9433C101.216 98.9433 101.38 98.9023 101.442 98.8204C101.524 98.7384 101.565 98.6155 101.565 98.4107V97.4684L100.66 95.7888C100.537 95.5635 100.434 95.3996 100.352 95.2972C100.187 95.0924 100.022 95.0104 99.8579 94.99V94.8261H101.175V94.99C101.092 94.99 101.031 95.0309 101.031 95.0719C101.031 95.1129 101.031 95.1129 101.031 95.1333L102.183 97.2226C102.779 96.3828 103.067 95.7478 103.067 95.3587C103.067 94.9695 103.005 95.0924 102.882 95.0309C102.8 94.99 102.656 94.9695 102.471 94.9695V94.8056H104.219V94.9695V94.99Z"
            fill="#016B80"/>
        <path
            d="M108.56 99.1071H107.243V98.9432H107.326C107.367 98.9432 107.387 98.9023 107.387 98.8408C107.387 98.7794 107.387 98.7999 107.387 98.7589L106.955 97.5913H105.351C105.186 98.0215 105.104 98.3492 105.104 98.5541C105.104 98.7589 105.248 98.9432 105.536 98.9432H105.721V99.1071H104.096V98.9432C104.363 98.9432 104.61 98.6565 104.836 98.1444L106.338 94.6417H106.544L107.84 98.0624C107.943 98.3083 108.025 98.4926 108.087 98.595C108.231 98.8203 108.395 98.9228 108.56 98.9228V99.0866V99.1071ZM106.873 97.407L106.215 95.6249L105.453 97.407H106.894H106.873Z"
            fill="#016B80"/>
        <path
            d="M57.9112 26.3501C57.3763 27.1899 56.4094 27.7634 55.3397 27.7634C53.6528 27.7634 52.2744 26.391 52.2744 24.7114C52.2744 23.0317 53.6322 21.6594 55.3397 21.6594C57.0472 21.6594 57.3763 22.2329 57.9318 23.0727C57.4792 22.5401 56.8003 22.2124 56.0391 22.2124C54.6608 22.2124 53.5293 23.339 53.5293 24.7114C53.5293 26.0838 54.6608 27.2104 56.0391 27.2104C57.4175 27.2104 57.4792 26.8826 57.9318 26.3501H57.9112Z"
            fill="#016B80"/>
        <path
            d="M58.2199 24.2813H59.228L58.4257 24.8753L58.7342 25.8175L57.9114 25.2235L57.0885 25.8175L57.397 24.8548L56.5947 24.2608L57.6028 24.2813L57.9114 23.3185L58.2199 24.2813Z"
            fill="#016B80"/>
    </g>
    <defs>
        <clipPath id="clip0_495_2704">
            <rect width="110" height="100" fill="white" transform="translate(0 0.5)"/>
        </clipPath>
    </defs>
</svg>
